<svg version="1.1" id="Layer_1" xmlns="http://www.w3.org/2000/svg" xmlns:xlink="http://www.w3.org/1999/xlink" x="0px" y="0px"
	 width="100%" viewBox="0 0 1024 1024" enable-background="new 0 0 1024 1024" xml:space="preserve">
<path fill="#ff8b2d" opacity="1.000000" stroke="none" 
	d="
M367.061584,518.527405 
	C370.402802,522.409851 372.646606,519.728088 374.597351,517.533203 
	C377.541046,514.221191 378.727051,509.929688 379.895660,505.797272 
	C382.289642,497.331848 384.578705,488.820404 386.427307,480.223907 
	C387.384125,475.774597 389.588959,473.782074 393.952026,474.149841 
	C400.272095,474.682495 406.576416,474.434662 412.904663,474.309967 
	C422.329559,474.124237 430.265808,482.370605 430.277405,491.900482 
	C430.317993,525.211243 430.050385,558.525269 430.470123,591.830872 
	C430.616669,603.460876 423.182770,610.128113 413.463654,610.659424 
	C400.845581,611.349243 388.163208,610.881897 375.508545,610.869080 
	C372.236908,610.865784 370.900604,609.137939 370.727478,605.841614 
	C369.837738,588.903809 368.742126,571.976868 367.832245,555.040039 
	C367.647583,551.602905 366.534241,548.692627 364.618042,546.051880 
	C363.268433,546.405579 363.274902,547.280762 363.245270,548.092041 
	C362.693359,563.211914 360.576599,578.251038 361.076935,593.433411 
	C361.213074,597.565552 360.537689,601.729553 360.157745,605.871887 
	C359.851746,609.208313 358.012451,610.983704 354.589722,610.984314 
	C340.433105,610.986633 326.268372,611.283569 312.122650,610.892944 
	C302.437866,610.625366 295.019196,602.706909 294.976318,592.975220 
	C294.828125,559.332031 294.806213,525.687500 294.929504,492.044189 
	C294.967896,481.570343 302.276428,474.382935 313.805420,474.170959 
	C335.116577,473.779205 356.440186,473.959045 377.757568,474.083740 
	C383.283356,474.116058 384.283661,476.297211 381.143890,480.912628 
	C375.964111,488.526703 372.267914,496.920990 368.272430,505.144073 
	C366.305328,509.192627 365.244629,513.626831 367.061584,518.527405 
M377.011688,552.483032 
	C385.469757,561.555847 394.599182,569.901428 403.887787,578.107483 
	C404.820312,577.022400 404.535553,576.418213 404.197144,575.838013 
	C397.492798,564.342957 391.059540,552.674011 382.979004,542.048828 
	C381.478271,540.075439 379.885345,538.092224 377.557617,536.956970 
	C375.474609,535.941101 373.354126,535.671753 371.485626,537.302917 
	C369.739014,538.827759 369.870605,540.867371 370.508820,542.857971 
	C371.660126,546.449097 374.229614,549.120239 377.011688,552.483032 
M335.838440,528.309326 
	C326.403351,530.836670 316.918671,533.225159 306.857178,537.994995 
	C308.872681,538.529968 309.472198,538.828918 310.070831,538.827148 
	C320.701996,538.795593 331.341278,538.944702 341.959259,538.540588 
	C345.335510,538.412048 348.733185,536.997192 351.969635,535.771179 
	C353.778473,535.085938 355.599548,533.655884 355.501587,531.372559 
	C355.405762,529.139282 353.610199,528.002258 351.739594,527.131104 
	C348.863953,525.791870 345.929962,526.082947 342.969452,526.802979 
	C340.880066,527.311157 338.775726,527.757629 335.838440,528.309326 
M366.628723,524.951233 
	C363.617218,523.534912 361.772064,525.182129 360.725922,527.631104 
	C359.609283,530.245117 361.203033,532.125000 363.423431,533.268616 
	C365.673859,534.427612 367.853149,533.592224 369.077026,531.663452 
	C370.670380,529.152405 369.641693,526.932068 366.628723,524.951233 
z"/>
<path fill="#2f99d6" opacity="1.000000" stroke="none" 
	d="
M491.716980,540.633789 
	C490.704498,546.578491 487.647705,548.813477 481.869019,548.341309 
	C476.077484,547.868164 470.203522,548.489380 464.389648,548.180481 
	C458.329163,547.858459 459.463409,551.990601 459.221283,555.534119 
	C458.964661,559.289490 459.956543,562.014893 464.317596,561.479797 
	C468.087952,561.017151 471.212524,561.052368 472.774536,565.390015 
	C473.356171,567.005188 475.313019,566.802734 476.785980,566.701965 
	C480.782379,566.428589 482.066772,568.434021 481.973694,572.156738 
	C481.857208,576.815918 482.023407,581.483032 482.109314,586.145996 
	C482.151794,588.451965 482.850067,590.540833 485.214630,591.355530 
	C487.566620,592.165894 488.531433,589.767578 490.166260,588.933472 
	C497.267548,585.310547 495.898499,578.932190 495.710815,573.027039 
	C495.574127,568.727051 496.714661,566.213867 501.536560,566.687683 
	C503.050812,566.836487 504.934601,566.750854 505.312622,565.011475 
	C506.175232,561.042725 508.950531,561.435730 511.871338,561.531921 
	C515.027893,561.635925 518.197266,561.546631 521.353821,561.393250 
	C523.778809,561.275452 526.078491,561.190857 527.293274,563.872742 
	C528.235107,565.952026 530.158997,565.900024 531.989868,565.962952 
	C535.619873,566.087769 537.452087,567.616760 537.229126,571.562073 
	C536.976135,576.038208 537.170654,580.539551 537.170654,584.936829 
	C539.144409,586.656921 541.745178,586.766663 542.823547,589.237671 
	C543.531311,590.859253 545.370605,592.092041 547.416138,591.327576 
	C549.435486,590.572815 550.601868,588.870056 550.647217,586.683105 
	C550.747437,581.854248 550.852722,577.019104 550.712769,572.193542 
	C550.587524,567.878418 551.985718,565.334778 556.761047,566.043091 
	C557.987915,566.225098 559.446350,566.420898 559.891907,565.242798 
	C561.711975,560.430298 565.687073,561.013733 569.484009,561.171570 
	C571.763794,561.266296 572.954346,560.463379 572.896423,558.053955 
	C572.852417,556.224243 572.878601,554.386108 573.004395,552.560669 
	C573.230896,549.273926 571.651611,548.169250 568.510803,548.227783 
	C561.849731,548.352112 555.175354,548.047424 548.524658,548.337830 
	C544.348572,548.520142 542.498352,546.465576 541.351746,542.932739 
	C535.981812,526.386597 530.614197,509.839264 525.138184,493.328033 
	C523.272339,487.702026 526.220947,482.390594 525.914856,476.835541 
	C525.797485,474.705017 528.622314,474.171783 530.686401,474.164856 
	C542.346436,474.125763 554.030334,473.680878 565.660095,474.274719 
	C577.417419,474.875122 584.173645,482.895996 584.181152,494.837250 
	C584.201050,526.488525 584.218262,558.139832 584.216492,589.791138 
	C584.215698,603.204102 576.619324,611.014893 563.230835,610.933777 
	C534.751770,610.761292 506.266388,611.603882 477.792938,610.431580 
	C475.299347,610.328857 472.760437,610.180237 470.303986,610.510010 
	C455.920410,612.441589 447.955475,602.100647 448.086090,589.422241 
	C448.298706,568.783020 448.463898,548.143127 448.608124,527.503296 
	C448.686127,516.342468 448.571259,505.179443 448.739349,494.020355 
	C448.930939,481.302246 455.165283,474.969330 467.771637,474.627686 
	C478.577606,474.334808 489.388672,474.192627 500.198486,474.091675 
	C506.198059,474.035645 505.993286,475.269745 507.411194,480.972870 
	C510.144714,491.967804 504.278595,500.838440 501.641785,510.454132 
	C498.879364,520.527954 495.156677,530.338379 491.716980,540.633789 
M530.455994,597.543640 
	C524.611816,599.655579 520.203003,596.986816 516.352966,593.052429 
	C506.882233,600.573425 505.844086,600.574280 496.100769,593.254639 
	C486.506775,600.641052 485.534027,600.639404 475.697296,592.914307 
	C471.886383,599.043396 465.791321,598.981689 458.529724,597.369934 
	C462.937073,602.298828 466.542816,603.062256 471.402283,600.257080 
	C474.729340,598.336365 477.644836,598.367432 480.733063,600.282349 
	C484.558258,602.654358 488.378174,602.434570 491.969330,599.987854 
	C494.450226,598.297546 496.739410,597.824951 499.306274,599.583618 
	C503.622253,602.540588 508.041870,602.402100 512.443298,599.834595 
	C515.194946,598.229370 517.693237,598.437561 520.369934,600.131470 
	C523.847839,602.332275 527.531982,602.636902 531.179932,600.376282 
	C534.563660,598.279236 537.804993,597.884216 541.303528,600.387329 
	C544.045105,602.348816 547.668579,602.906738 550.290527,601.011169 
	C554.809570,597.744141 558.517639,598.720642 562.988098,600.994629 
	C566.730347,602.898193 570.538269,601.965149 573.160339,597.512817 
	C566.399841,599.623596 560.540955,598.972046 556.711609,592.656982 
	C547.665588,600.546570 545.834900,600.554199 536.053406,593.117004 
	C534.440552,594.469299 532.800537,595.844360 530.455994,597.543640 
z"/>
<path fill="#3dff94" opacity="1.000000" stroke="none" 
	d="
M644.994385,611.106079 
	C637.170471,611.043274 629.839600,610.781982 622.521362,610.982300 
	C611.349243,611.287903 601.421570,602.669128 601.650208,590.048584 
	C602.235229,557.757385 601.903381,525.448486 601.795288,493.147125 
	C601.778687,488.180237 603.465637,484.067932 606.426636,480.333252 
	C607.375366,479.136627 608.722290,478.288971 610.380005,478.834259 
	C611.927307,479.343201 613.094849,480.551056 613.040833,482.127075 
	C612.883179,486.723450 614.572815,491.893524 608.559937,494.671967 
	C605.827698,495.934509 607.185730,498.615082 607.815247,500.737610 
	C616.166382,501.221893 620.728882,508.397064 617.316895,515.469910 
	C616.607727,516.939880 616.720398,517.972107 617.833130,519.008118 
	C619.091675,520.179871 620.287537,520.980225 622.260559,520.205017 
	C628.651672,517.694031 635.356384,521.463989 636.421448,528.076355 
	C636.676025,529.656799 637.524475,530.437378 638.953064,530.721436 
	C640.740295,531.076904 641.989319,530.637024 643.073547,528.867981 
	C645.171875,525.444580 653.099121,523.432617 656.766113,525.012024 
	C658.895752,525.929260 658.905518,528.247192 660.100037,529.802490 
	C665.999939,530.495789 664.031128,524.906738 665.959473,522.114319 
	C668.834045,523.666687 671.584656,525.799866 671.367554,528.639587 
	C671.113708,531.960510 667.885193,534.134583 665.105225,535.963745 
	C663.935974,536.733032 662.430359,536.157776 661.404358,535.216858 
	C659.037842,533.046692 657.340698,533.776428 655.775574,536.197754 
	C654.226196,538.594788 653.640991,540.810059 656.591492,542.537842 
	C660.165405,544.630615 658.498352,547.336731 657.506836,549.932922 
	C656.506592,552.551880 655.159241,555.009277 651.744690,554.101746 
	C648.930298,553.353638 647.140503,554.050659 646.515381,556.927185 
	C645.960938,559.478271 645.715210,562.017273 649.135925,562.883057 
	C653.430298,563.969849 652.085571,567.426086 652.191589,570.244385 
	C652.306702,573.304810 650.727417,574.927185 647.721130,575.044189 
	C643.972351,575.190002 644.023499,577.713562 644.362305,580.331482 
	C644.685242,582.827148 645.457642,584.971252 648.757690,584.323792 
	C651.565735,583.772888 653.492065,585.044495 653.809509,587.769836 
	C654.159302,590.773010 656.718201,594.519775 652.145203,596.498718 
	C648.393921,598.122009 649.724976,600.697083 650.635864,603.131470 
	C651.662964,605.876709 653.636597,605.730957 655.900024,604.538330 
	C657.459961,603.716248 659.082214,603.480713 660.383423,605.146423 
	C661.346375,606.379089 662.081787,607.683594 661.312012,609.265564 
	C660.417542,611.103943 658.637512,611.032043 656.981567,611.055542 
	C653.152588,611.109924 649.322632,611.098877 644.994385,611.106079 
z"/>
<path fill="#ffffff" opacity="1.000000" stroke="none" 
	d="
M385.019653,434.000000 
	C385.059143,440.998810 385.053711,447.498322 385.154419,453.996185 
	C385.224457,458.515839 383.161255,460.651825 378.586517,460.907135 
	C365.061310,461.661926 364.913727,461.561218 364.926910,448.016510 
	C364.947784,426.519745 364.909485,405.022888 364.915497,383.526093 
	C364.917358,376.872711 365.663055,376.132172 372.394653,376.061462 
	C376.560211,376.017731 380.740479,376.274811 384.888916,376.006714 
	C389.117462,375.733398 391.606995,377.567230 393.711090,381.100403 
	C402.561401,395.962006 411.612854,410.703979 420.624847,425.468903 
	C421.377838,426.702576 422.385254,427.780975 423.418671,429.118134 
	C425.394501,427.414581 424.706696,425.470978 424.717438,423.829529 
	C424.806885,410.165375 424.918640,396.498932 424.741058,382.836853 
	C424.683899,378.440369 426.140167,376.187805 430.670898,376.347443 
	C431.000671,376.359070 431.332916,376.275879 431.665039,376.249512 
	C443.673431,375.295441 444.344360,375.974152 444.413239,387.977081 
	C444.531769,408.635284 444.747559,429.292908 444.901001,449.950958 
	C444.915833,451.947327 444.838715,453.948914 444.699554,455.940796 
	C444.493134,458.895844 443.014954,460.434753 439.878754,460.400543 
	C434.051605,460.336884 428.221802,460.379333 422.394867,460.481079 
	C418.774506,460.544250 417.808594,457.663300 416.368225,455.309235 
	C406.729218,439.555939 397.114594,423.787720 387.477936,408.032959 
	C387.141418,407.482819 386.656128,407.023682 385.020050,406.588013 
	C385.020050,415.558685 385.020050,424.529327 385.019653,434.000000 
z"/>
<path fill="#ffffff" opacity="1.000000" stroke="none" 
	d="
M587.123657,425.699493 
	C584.816833,406.932068 589.917847,391.566406 606.002869,381.296387 
	C616.877563,374.353027 629.121643,373.472107 641.654907,375.156494 
	C648.829285,376.120697 655.601501,378.035492 661.518372,382.507721 
	C664.261292,384.580933 664.743225,386.426025 662.295593,388.998627 
	C659.428345,392.012360 656.681091,395.141541 653.916504,398.251465 
	C651.706848,400.737122 649.967102,399.349884 647.937378,397.835846 
	C637.549805,390.087097 623.112610,390.827454 614.021912,399.521851 
	C606.599915,406.620331 605.209717,417.500977 608.122681,426.918549 
	C611.722168,438.555603 619.171509,443.470795 630.750793,443.714630 
	C635.445984,443.813477 640.051514,443.471527 644.461731,441.586700 
	C646.516663,440.708496 647.591797,439.472260 647.820435,437.159119 
	C648.620239,429.067383 647.968811,428.277618 639.793884,428.290131 
	C632.977539,428.300568 632.779053,428.103516 632.753540,421.303986 
	C632.710754,409.910950 632.710632,409.902374 644.093201,409.840942 
	C649.757629,409.810364 655.427795,409.968292 661.085022,409.759949 
	C665.488586,409.597809 667.173218,411.667847 666.945618,415.781952 
	C666.310425,427.262329 666.071777,438.742432 666.820862,450.228821 
	C666.992615,452.862061 665.705994,454.770660 663.358765,455.787079 
	C645.885620,463.353363 627.987915,465.444275 610.166382,457.729340 
	C596.630432,451.869598 589.246033,440.741425 587.123657,425.699493 
z"/>
<path fill="#ffffff" opacity="1.000000" stroke="none" 
	d="
M575.721191,460.399231 
	C568.086365,461.648376 563.949829,458.650909 561.223267,451.857788 
	C558.387207,444.791779 554.297119,438.233948 550.851257,431.405548 
	C549.328552,428.388184 547.214844,426.600555 543.710510,427.450745 
	C540.217712,428.298096 541.113159,431.328979 541.074951,433.639618 
	C540.956604,440.796173 541.000000,447.957031 541.093140,455.114777 
	C541.145203,459.114685 539.588928,460.929871 535.362061,460.494110 
	C532.743896,460.224182 530.044250,460.543121 527.398621,460.787140 
	C522.943237,461.198090 520.812256,459.304443 520.943054,454.801361 
	C521.199280,445.985596 521.604736,437.168152 521.592163,428.351898 
	C521.571289,413.708374 521.214966,399.065643 521.108215,384.421814 
	C521.054321,377.024933 522.020447,375.764984 529.489441,376.219666 
	C541.757507,376.966522 554.089600,375.633942 566.322510,377.890533 
	C575.972778,379.670715 584.388733,388.550140 585.212524,398.332581 
	C586.180847,409.832428 583.243469,419.166656 571.779419,424.024261 
	C568.808838,425.282990 569.171997,426.914490 570.501343,429.091949 
	C575.267578,436.898529 580.007324,444.721344 584.729492,452.554657 
	C585.987793,454.642059 588.451294,456.786072 587.022217,459.258484 
	C585.447998,461.982025 582.240662,460.702942 579.661072,460.643738 
	C578.498047,460.617096 577.337402,460.487732 575.721191,460.399231 
M554.762817,410.483582 
	C556.387634,410.136688 558.053162,409.917999 559.629211,409.417419 
	C563.461975,408.199982 565.226440,405.500305 564.995239,401.476257 
	C564.759827,397.377686 562.372742,394.838593 558.596313,394.311127 
	C554.181519,393.694519 549.656189,393.807220 545.176697,393.739105 
	C542.329285,393.695831 541.236511,395.234222 541.041687,398.120880 
	C540.181335,410.863739 540.168701,410.926849 552.895508,410.635498 
	C553.227661,410.627899 553.559387,410.600800 554.762817,410.483582 
z"/>
<path fill="#ffffff" opacity="1.000000" stroke="none" 
	d="
M357.596527,457.245422 
	C357.007477,460.118439 355.343750,460.580322 353.059479,460.564545 
	C336.897003,460.452942 320.732635,460.313049 304.571686,460.470123 
	C299.799713,460.516510 297.814789,458.668335 297.970642,454.038666 
	C298.474976,439.054535 297.692993,424.061646 298.481598,409.067627 
	C298.891418,401.275848 298.427704,393.426331 298.123596,385.612030 
	C297.804840,377.422394 298.818054,376.157135 306.819214,376.133575 
	C320.650330,376.092865 334.481537,376.074310 348.312714,376.073669 
	C354.678864,376.073364 355.395386,376.688293 355.372040,382.765869 
	C355.321564,395.914764 356.748291,394.935760 343.328644,394.946167 
	C336.837280,394.951233 330.336243,394.735199 323.857391,394.332672 
	C319.568481,394.066162 317.519623,395.538544 318.037109,399.997467 
	C318.170654,401.148163 318.123779,402.333221 318.037994,403.493500 
	C317.755798,407.310242 319.364990,408.865356 323.296417,408.774017 
	C331.790497,408.576782 340.295013,408.834808 348.789612,408.648804 
	C352.000793,408.578461 353.348480,409.587860 353.329102,412.869415 
	C353.233948,429.002472 355.164825,426.889923 339.820435,426.992981 
	C333.988861,427.032135 328.149323,427.073853 322.326965,426.812866 
	C319.288300,426.676666 318.244263,427.724640 318.024475,430.714233 
	C317.220673,441.647919 317.190613,441.691742 327.869080,441.679382 
	C336.034302,441.669922 344.201538,441.813324 352.363983,441.668121 
	C356.161774,441.600555 357.943359,442.855621 357.654358,446.885986 
	C357.417542,450.189240 357.657806,453.526733 357.596527,457.245422 
z"/>
<path fill="#ffffff" opacity="1.000000" stroke="none" 
	d="
M508.531738,376.510406 
	C511.423737,377.089600 511.974243,379.015717 511.989899,381.100952 
	C512.111328,397.248901 513.333130,394.560577 499.573944,394.484711 
	C492.748169,394.447083 485.919678,394.562683 479.097168,394.404633 
	C475.428070,394.319641 474.159912,395.899170 474.023407,399.456879 
	C473.682373,408.342651 473.907654,408.709290 482.839050,408.724243 
	C490.165588,408.736481 497.494598,408.854889 504.817657,408.699249 
	C508.455261,408.621918 509.823181,410.140991 510.036285,413.676727 
	C510.834991,426.928284 510.884552,426.966949 497.434967,426.986389 
	C491.274750,426.995270 485.102539,427.119110 478.958679,426.778320 
	C475.391724,426.580444 474.018860,427.906708 474.118988,431.267822 
	C474.143707,432.098572 474.062927,432.931915 474.059326,433.764160 
	C474.025055,441.669037 474.103607,441.733734 482.158295,441.717773 
	C490.983490,441.700287 499.810028,441.792755 508.633331,441.659637 
	C512.433289,441.602325 513.956848,443.203766 514.185547,446.954773 
	C515.030701,460.819458 514.389099,461.195526 500.481110,460.627258 
	C487.513428,460.097382 474.511444,460.406403 461.524536,460.348602 
	C454.872650,460.319000 454.649261,459.964081 454.672119,453.189606 
	C454.749573,430.210938 454.734711,407.231995 454.757721,384.253143 
	C454.765320,376.682465 454.857574,376.630310 462.174011,376.615326 
	C477.491211,376.583954 492.808350,376.507324 508.531738,376.510406 
z"/>
<path fill="#ffffff" opacity="1.000000" stroke="none" 
	d="
M713.234497,393.271912 
	C715.924377,388.840637 718.533020,384.779327 720.870117,380.567413 
	C722.710571,377.250641 725.385254,375.931732 729.057190,376.032654 
	C732.715210,376.133209 736.380859,375.966217 740.038513,376.074036 
	C745.403320,376.232178 746.122131,377.515747 743.239075,381.957428 
	C738.261780,389.625671 733.152649,397.208221 728.127502,404.845642 
	C724.565979,410.258606 721.083313,415.723633 717.502014,421.123383 
	C715.888184,423.556671 715.117004,426.092194 715.165344,429.074860 
	C715.305542,437.725464 715.070740,446.382812 715.254211,455.031769 
	C715.347107,459.407745 713.453491,461.144867 709.277771,460.841187 
	C707.619263,460.720551 705.958435,460.519165 704.299927,460.531006 
	C695.070862,460.596863 695.042847,460.615204 695.100037,451.202057 
	C695.148560,443.217896 695.224304,435.233215 695.399475,427.251190 
	C695.437927,425.503998 695.113281,424.054535 694.139526,422.579468 
	C685.621887,409.677185 677.182861,396.723053 668.675293,383.814087 
	C667.395813,381.872711 666.130920,379.975250 665.567078,377.020233 
	C672.995728,375.451660 680.191467,375.487885 687.325195,376.832977 
	C689.677673,377.276550 690.535950,380.041565 691.691406,382.050323 
	C696.068237,389.659332 700.427856,397.278259 705.001465,405.255493 
	C708.907227,401.781799 710.477661,397.328491 713.234497,393.271912 
z"/>
<path fill="#3dff94" opacity="1.000000" stroke="none" 
	d="
M684.994385,520.184998 
	C678.887573,523.399353 676.692932,522.409363 675.439575,516.178772 
	C676.548706,515.301025 677.658081,515.916626 678.748413,516.216003 
	C680.835205,516.789001 681.793762,515.319580 682.763123,513.977844 
	C683.814148,512.523071 682.678772,511.609436 681.868896,510.517700 
	C678.758179,506.324585 682.218262,497.036774 687.410217,495.925873 
	C689.544556,495.469208 690.700378,494.631775 690.851379,492.436310 
	C690.998047,490.304596 689.784912,489.692688 687.959290,489.124390 
	C685.098083,488.233795 681.197327,478.507935 682.532593,475.988525 
	C683.449524,474.258423 685.261475,474.122650 686.897461,474.130341 
	C698.384399,474.184418 709.890747,473.949341 721.351379,474.554810 
	C730.612854,475.044037 737.136292,482.723999 737.260071,491.938812 
	C737.304749,495.269440 737.441772,498.599609 737.434387,501.929749 
	C737.431091,503.417084 737.274780,504.923706 736.983582,506.380737 
	C736.872681,506.935699 736.089294,507.860657 735.781006,507.797272 
	C729.735535,506.553467 729.213379,517.674805 721.857056,513.890503 
	C719.769287,512.816528 717.811829,512.160583 717.831421,509.592255 
	C717.856689,506.269562 716.150940,505.387115 713.144714,505.275818 
	C709.993958,505.159210 709.032593,506.613678 709.004211,509.444061 
	C708.978271,512.032227 707.451538,513.342834 704.922058,513.578918 
	C702.213928,513.831665 699.399597,515.285095 697.103882,512.352600 
	C693.439453,507.671570 692.065308,507.598907 686.686646,511.601837 
	C688.376160,514.660217 690.235046,517.963928 684.994385,520.184998 
z"/>
<path fill="#3dff94" opacity="1.000000" stroke="none" 
	d="
M717.030151,555.646057 
	C730.457153,559.340393 734.491028,571.155518 730.670715,581.955872 
	C727.793091,590.091370 716.872681,596.710083 705.160461,591.181946 
	C697.714478,587.667480 692.911865,577.224609 695.578979,569.169189 
	C698.787354,559.478882 708.448730,553.263062 717.030151,555.646057 
z"/>
<path fill="#ffffff" opacity="1.000000" stroke="none" 
	d="
M533.346741,661.329468 
	C529.208191,647.170837 532.213562,636.586365 541.906677,630.197144 
	C553.749512,622.390808 568.935242,625.681091 576.326294,637.655029 
	C583.420349,649.147583 579.765259,664.911499 568.408630,671.803223 
	C556.460754,679.053589 541.400391,675.145142 534.302734,662.953186 
	C534.051453,662.521606 533.787781,662.097290 533.346741,661.329468 
M548.243469,667.481384 
	C557.797363,671.178955 568.028992,667.440857 571.485413,658.989990 
	C575.374756,649.480835 571.515442,637.876099 563.152710,633.933960 
	C554.181641,629.705017 544.413696,633.166565 539.980896,642.145447 
	C535.491211,651.239624 538.873962,662.416382 548.243469,667.481384 
z"/>
<path fill="#ffffff" opacity="1.000000" stroke="none" 
	d="
M630.312988,631.204712 
	C645.280701,620.372253 660.992432,628.325623 666.471375,638.153931 
	C672.856384,649.607605 669.536438,664.416748 659.031616,671.398071 
	C648.416687,678.452515 633.770386,676.028687 625.930725,665.920105 
	C617.845459,655.494812 619.597717,640.770020 630.312988,631.204712 
M631.475342,639.049194 
	C630.560120,640.997375 629.311218,642.860596 628.789917,644.908997 
	C626.958496,652.105469 627.880859,658.912720 633.281616,664.353027 
	C638.373535,669.482300 644.898193,669.954773 651.387939,667.998535 
	C658.065002,665.985779 662.668701,658.752747 662.787720,651.398560 
	C662.923279,643.019775 658.537415,636.124390 651.280945,633.307800 
	C644.587280,630.709595 637.155701,632.674927 631.475342,639.049194 
z"/>
<path fill="#ffffff" opacity="1.000000" stroke="none" 
	d="
M487.251770,637.099365 
	C487.249390,648.070068 487.260986,658.555847 487.233124,669.041504 
	C487.226929,671.376099 487.446686,674.061096 483.999878,674.099609 
	C480.577911,674.137878 480.031860,671.595886 479.992554,668.941833 
	C479.933411,664.949341 479.824890,660.940430 480.112213,656.965637 
	C480.324799,654.024536 479.192963,653.080688 476.448212,653.136292 
	C471.623322,653.234131 466.794312,653.239502 461.968964,653.162048 
	C459.224731,653.117981 457.995270,654.333862 458.027405,657.039001 
	C458.076782,661.199402 458.058502,665.360535 458.082214,669.521301 
	C458.095703,671.888794 457.630615,673.953369 454.725342,674.094543 
	C451.740784,674.239624 451.107971,672.115967 451.101929,669.797180 
	C451.069397,657.315125 451.076630,644.832642 451.169983,632.351013 
	C451.186340,630.159607 451.579315,627.684082 454.549927,627.749817 
	C457.644531,627.818298 458.194092,630.122131 458.053009,632.708191 
	C458.043945,632.874207 458.030853,633.043213 458.050537,633.207153 
	C458.571289,637.548950 455.853424,643.943848 459.606964,645.818542 
	C464.864655,648.444580 471.660736,646.714539 477.793854,646.504272 
	C479.699554,646.438904 479.896362,644.657532 479.911346,643.094177 
	C479.941681,639.932068 479.844818,636.764893 479.994141,633.608887 
	C480.119507,630.960571 480.107880,627.739929 483.934143,627.940369 
	C487.382721,628.121033 487.214355,631.082886 487.239777,633.618469 
	C487.249817,634.617065 487.247955,635.615723 487.251770,637.099365 
z"/>
<path fill="#ffffff" opacity="1.000000" stroke="none" 
	d="
M394.409149,626.096436 
	C398.288300,627.318604 401.909790,628.186096 404.629639,630.840393 
	C405.869934,632.050903 407.764984,633.252930 406.079742,635.398743 
	C404.472198,637.445679 402.623047,637.733276 400.486755,636.033203 
	C395.345612,631.941956 389.782166,630.963440 383.736572,633.942566 
	C377.250122,637.139099 374.345551,642.553894 374.026947,649.576233 
	C373.694031,656.913879 375.805145,663.215698 382.610382,666.807251 
	C388.983063,670.170410 395.424255,669.965088 401.257996,665.263672 
	C403.181519,663.713562 404.979218,662.066284 407.104126,664.747131 
	C409.320984,667.544006 406.734894,669.050659 405.138031,670.470581 
	C395.701569,678.861877 373.273987,677.300720 367.826569,658.054993 
	C362.827728,640.394043 375.420776,625.268188 394.409149,626.096436 
z"/>
<path fill="#ffffff" opacity="1.000000" stroke="none" 
	d="
M316.804321,626.730347 
	C318.519867,627.548828 319.962769,628.076477 321.168823,628.936401 
	C322.704376,630.031128 325.019318,631.010010 323.551910,633.587097 
	C322.103638,636.130554 319.996399,636.287354 317.614258,634.784546 
	C316.493347,634.077393 315.379486,633.291870 314.153839,632.830139 
	C309.840332,631.205139 304.473053,633.425293 303.279633,637.221252 
	C302.038391,641.169373 304.586060,645.067810 309.369141,646.587158 
	C311.577332,647.288574 313.797546,647.967102 315.961823,648.789001 
	C323.056671,651.483337 325.781830,655.680298 325.213684,662.889099 
	C324.736481,668.943481 320.409088,673.382935 313.596649,674.720459 
	C308.329407,675.754517 303.301941,675.203857 298.826813,672.007202 
	C296.923584,670.647705 294.675690,669.085938 296.681610,666.363708 
	C298.544128,663.836121 300.634827,664.828918 302.697632,666.449524 
	C306.646851,669.552063 311.014130,669.938416 315.225830,667.290161 
	C320.071106,664.243591 319.848663,658.818298 314.790955,656.167603 
	C311.576141,654.482788 307.981445,653.540039 304.669891,652.018982 
	C297.568726,648.757202 294.902405,644.146729 296.017578,637.483765 
	C297.006989,631.572266 302.831390,626.556030 309.510162,626.009644 
	C311.822601,625.820435 314.177917,625.725952 316.804321,626.730347 
z"/>
<path fill="#3dff94" opacity="1.000000" stroke="none" 
	d="
M660.282166,490.726562 
	C658.696472,498.233032 653.199341,502.494263 646.814697,501.585693 
	C640.328979,500.662781 635.958801,494.444672 636.726990,487.232330 
	C637.362732,481.262848 642.459961,477.276215 649.069153,477.579315 
	C656.671936,477.927979 660.185669,481.910889 660.282166,490.726562 
z"/>
<path fill="#ffffff" opacity="1.000000" stroke="none" 
	d="
M713.766479,649.000183 
	C713.768066,643.334412 713.715088,638.167725 713.795227,633.003113 
	C713.830200,630.750610 713.377686,627.777039 716.752197,627.673706 
	C720.299438,627.565125 720.944092,630.331421 720.948364,633.231812 
	C720.961670,642.230164 720.939026,651.228577 720.960938,660.226868 
	C720.979675,667.919006 720.998291,667.896973 728.736206,667.878418 
	C731.899414,667.870850 735.068542,667.885864 738.223938,668.074768 
	C740.049744,668.184143 741.401672,669.136414 741.376648,671.230103 
	C741.351501,673.333801 740.060974,674.192810 738.140564,674.199951 
	C731.309326,674.225220 724.477661,674.240479 717.646729,674.183899 
	C714.597839,674.158630 713.771118,672.191833 713.783447,669.496765 
	C713.813904,662.831360 713.776184,656.165710 713.766479,649.000183 
z"/>
<path fill="#2f99d6" opacity="1.000000" stroke="none" 
	d="
M518.684570,509.093567 
	C519.194214,509.562286 519.420166,509.805817 519.651550,510.043915 
	C528.528015,519.177124 528.504944,519.633789 518.603821,527.998901 
	C517.983276,528.523193 517.057129,529.460754 516.609680,529.295410 
	C512.043213,527.607910 509.442291,523.565369 506.555389,520.067139 
	C504.409302,517.466553 506.977173,515.211548 508.926483,513.915833 
	C511.888458,511.946991 513.022034,506.278168 518.684570,509.093567 
z"/>
<path fill="#2f99d6" opacity="1.000000" stroke="none" 
	d="
M497.624084,540.271790 
	C496.402679,537.277344 499.512878,524.962036 501.560303,523.489746 
	C501.692413,523.394714 501.834778,523.246643 501.976318,523.241882 
	C507.211761,523.065308 508.470276,528.240906 511.802032,530.641846 
	C513.782898,532.069336 512.769409,533.855408 511.346130,535.281799 
	C509.592468,537.039490 507.621429,538.624512 506.106567,540.566650 
	C503.226593,544.258972 500.598694,544.153076 497.624084,540.271790 
z"/>
<path fill="#2f99d6" opacity="1.000000" stroke="none" 
	d="
M536.043457,536.951904 
	C533.303650,544.170776 530.713379,544.842468 525.830078,539.994751 
	C518.979431,533.194031 519.931824,527.291992 528.557678,522.953430 
	C530.664001,521.893982 531.554626,522.843506 532.160156,524.804810 
	C533.377136,528.745850 534.723633,532.646851 536.043457,536.951904 
z"/>
<path fill="#2f99d6" opacity="1.000000" stroke="none" 
	d="
M516.025879,548.247253 
	C512.373474,547.881653 508.982697,549.119568 505.370483,546.795715 
	C507.839172,542.621277 511.501556,539.864258 514.786194,536.796265 
	C515.569092,536.065002 516.721069,535.857849 517.498657,536.651611 
	C520.650452,539.868896 524.753662,542.268127 526.820190,546.723755 
	C523.395935,549.332947 519.802917,547.781189 516.025879,548.247253 
z"/>
<path fill="#2f99d6" opacity="1.000000" stroke="none" 
	d="
M512.082520,489.077454 
	C513.869080,486.078461 516.542786,484.571014 518.739624,486.899994 
	C520.960205,489.254272 523.291077,492.693176 521.111938,496.284790 
	C519.876892,498.320312 518.380920,501.340851 515.065613,500.220520 
	C510.965240,498.834930 509.847321,494.539398 512.082520,489.077454 
z"/>
<path fill="#2f99d6" opacity="1.000000" stroke="none" 
	d="
M525.697632,505.267212 
	C526.071045,506.831726 526.874817,508.052917 525.721252,509.509399 
	C522.286499,509.289764 520.874756,506.823212 520.125305,503.930206 
	C519.826782,502.778046 520.798401,501.617432 522.067566,501.539062 
	C524.321533,501.399841 525.021851,503.161133 525.697632,505.267212 
z"/>
<path fill="#2f99d6" opacity="1.000000" stroke="none" 
	d="
M511.024841,506.982300 
	C509.665222,508.198151 508.740723,510.747101 506.974152,508.846619 
	C505.220703,506.960236 506.873322,504.795837 507.956024,502.972443 
	C508.635590,501.827911 509.536072,500.639557 511.131348,501.716888 
	C513.475830,503.300232 512.701721,505.014709 511.024841,506.982300 
z"/>
</svg>